<svg id="Filled" height="512" viewBox="0 0 512 512" width="512" xmlns="http://www.w3.org/2000/svg"><path d="m40 72h448v416h-448z" fill="#c3c6c7"/><path d="m24 56h432v400h-432z" fill="#e9eef2"/><path d="m24 56h432v96h-432z" fill="#eb423f"/><path d="m488 64h-24v-8a8 8 0 0 0 -8-8h-56v-8a24 24 0 0 0 -48 0v8h-16v-8a24 24 0 0 0 -48 0v8h-96v-8a24 24 0 0 0 -48 0v8h-16v-8a24 24 0 0 0 -48 0v8h-56a8 8 0 0 0 -8 8v400a8 8 0 0 0 8 8h8v24a8 8 0 0 0 8 8h448a8 8 0 0 0 8-8v-416a8 8 0 0 0 -8-8zm-456 384v-288h416v288zm336-408a8 8 0 0 1 16 0v8h-16zm-64 0a8 8 0 0 1 16 0v8h-16zm-144 0a8 8 0 0 1 16 0v8h-16zm-64 0a8 8 0 0 1 16 0v8h-16zm-16 24v8a24.028 24.028 0 0 0 24 24 8 8 0 0 0 0-16 8.009 8.009 0 0 1 -8-8v-8h48v8a24.028 24.028 0 0 0 24 24 8 8 0 0 0 0-16 8.009 8.009 0 0 1 -8-8v-8h128v8a24.028 24.028 0 0 0 24 24 8 8 0 0 0 0-16 8.009 8.009 0 0 1 -8-8v-8h48v8a24.028 24.028 0 0 0 24 24 8 8 0 0 0 0-16 8.009 8.009 0 0 1 -8-8v-8h80v80h-416v-80zm400 416h-432v-16h408a8 8 0 0 0 8-8v-376h16z"/><path d="m328 392a8 8 0 0 0 8-8v-160a8 8 0 0 0 -12.657-6.5l-64 45.818a8 8 0 1 0 9.314 13.01l51.343-36.762v144.434a8 8 0 0 0 8 8z"/><path d="m240 264a48 48 0 0 0 -96 0 8 8 0 0 0 16 0 32 32 0 1 1 32 32 8 8 0 0 0 0 16 32 32 0 1 1 -32 32 8 8 0 0 0 -16 0 48 48 0 1 0 74.507-40 47.994 47.994 0 0 0 21.493-40z"/></svg>